<svg xmlns="http://www.w3.org/2000/svg" viewBox="0 0 512 512">
  <rect width="512" height="512" rx="96" fill="#07130c"/>
  <circle cx="256" cy="256" r="176" fill="#102016" stroke="#34d399" stroke-width="24"/>
  <path fill="#6ee7b7" d="M158 250c0-62 44-110 101-110 56 0 95 42 95 94 0 44-30 75-70 75-25 0-45-14-54-34l-38 73h-50l58-110c-1-5-2-10-2-16 0-36 26-64 61-64 32 0 56 24 56 56 0 29-20 50-48 50-10 0-19-3-27-8 6 19 22 32 44 32 29 0 51-23 51-56 0-42-30-74-75-74-47 0-82 39-82 91 0 58 42 96 101 96 33 0 62-11 85-31v45c-25 18-54 27-88 27-82 0-137-54-137-132Z"/>
</svg>
