<svg xmlns="http://www.w3.org/2000/svg" viewBox="0 0 64 64">
  <rect width="64" height="64" rx="14" fill="#07130c"/>
  <circle cx="32" cy="32" r="25" fill="#102016" stroke="#34d399" stroke-width="4"/>
  <path d="M32 7v25L49.7 14.3A24.9 24.9 0 0 0 32 7z" fill="#34d399"/>
  <path d="M32 32 56.6 36A25 25 0 0 0 49.7 14.3z" fill="#38bdf8"/>
  <path d="M32 32 42.7 54.6A25 25 0 0 0 56.6 36z" fill="#f59e0b"/>
  <path d="M32 32 13.8 49.1a25 25 0 0 0 28.9 5.5z" fill="#f43f5e"/>
  <path d="M32 32 7.4 36a25 25 0 0 0 6.4 13.1z" fill="#a78bfa"/>
  <path d="M32 32V7A25 25 0 0 0 7.4 36z" fill="#22c55e"/>
  <circle cx="32" cy="32" r="7" fill="#f8fafc" stroke="#07130c" stroke-width="3"/>
  <path d="M32 2 37 12H27z" fill="#f8fafc"/>
</svg>
